# xmcd CD database file
#
# Track frame offsets:
#	150
#	23098
#	49947
#	73839
#	105405
#	124979
#	152370
#
# Disc length: 2798 seconds
#
# Revision: 0
# Processed by: cddbd v1.5.2PL0 Copyright (c) Steve Scherf et al.
# Submitted via: CDex 1.51
#
DISCID=550aec07
DTITLE=Lucyan - Relaxing - New version
DYEAR=2003
DGENRE=New Age
TTITLE0=Spring Rain 
TTITLE1=Rolling Waves
TTITLE2=Smile in the Fog
TTITLE3=Wanderes
TTITLE4=Neverending Ballad
TTITLE5=Taste of Rice
TTITLE6=Pastoral Meditation
EXTD=YEAR: 2003
EXTT0=
EXTT1=
EXTT2=
EXTT3=
EXTT4=
EXTT5=
EXTT6=
PLAYORDER=
